<svg width="29" height="29" viewBox="0 0 29 29" fill="none" xmlns="http://www.w3.org/2000/svg">
<path d="M18.125 25.375V15.7083C18.125 15.3879 17.9977 15.0805 17.7711 14.8539C17.5445 14.6273 17.2371 14.5 16.9167 14.5H12.0833C11.7629 14.5 11.4555 14.6273 11.2289 14.8539C11.0023 15.0805 10.875 15.3879 10.875 15.7083V25.375" stroke="#E2E7F2" stroke-width="2.41667" stroke-linecap="round" stroke-linejoin="round"/>
<path d="M3.625 12.0833C3.62492 11.7318 3.70153 11.3845 3.84949 11.0656C3.99746 10.7467 4.21321 10.4639 4.48171 10.237L12.94 2.98821C13.3762 2.61956 13.9289 2.4173 14.5 2.4173C15.0711 2.4173 15.6238 2.61956 16.06 2.98821L24.5183 10.237C24.7868 10.4639 25.0025 10.7467 25.1505 11.0656C25.2985 11.3845 25.3751 11.7318 25.375 12.0833V22.9583C25.375 23.5993 25.1204 24.214 24.6672 24.6672C24.214 25.1204 23.5993 25.375 22.9583 25.375H6.04167C5.40073 25.375 4.78604 25.1204 4.33283 24.6672C3.87961 24.214 3.625 23.5993 3.625 22.9583V12.0833Z" stroke="#E2E7F2" stroke-width="2.41667" stroke-linecap="round" stroke-linejoin="round"/>
</svg>
