<svg width="26" height="27" viewBox="0 0 26 27" fill="none" xmlns="http://www.w3.org/2000/svg">
<path d="M21.4534 8.96775L15.9271 3.44143C15.8537 3.36814 15.7666 3.31002 15.6708 3.2704C15.575 3.23078 15.4723 3.21043 15.3685 3.21051H5.89487C5.4761 3.21051 5.07449 3.37686 4.77838 3.67297C4.48227 3.96908 4.31592 4.37069 4.31592 4.78946V22.1579C4.31592 22.5766 4.48227 22.9783 4.77838 23.2744C5.07449 23.5705 5.4761 23.7368 5.89487 23.7368H20.1054C20.5242 23.7368 20.9258 23.5705 21.2219 23.2744C21.518 22.9783 21.6843 22.5766 21.6843 22.1579V9.5263C21.6844 9.42259 21.6641 9.31989 21.6244 9.22405C21.5848 9.12821 21.5267 9.04112 21.4534 8.96775ZM15.3685 9.5263V5.18419L19.7107 9.5263H15.3685Z" fill="#252525"/>
</svg>
