<svg width="27" height="28" viewBox="0 0 27 28" fill="none" xmlns="http://www.w3.org/2000/svg">
<path d="M21.9539 9.46769L16.4276 3.94137C16.3542 3.86808 16.2671 3.80996 16.1713 3.77034C16.0755 3.73072 15.9728 3.71037 15.869 3.71045H6.39536C5.97659 3.71045 5.57498 3.8768 5.27887 4.17291C4.98276 4.46902 4.81641 4.87063 4.81641 5.2894V22.6578C4.81641 23.0765 4.98276 23.4782 5.27887 23.7743C5.57498 24.0704 5.97659 24.2367 6.39536 24.2367H20.6059C21.0247 24.2367 21.4263 24.0704 21.7224 23.7743C22.0185 23.4782 22.1848 23.0765 22.1848 22.6578V10.0262C22.1849 9.92253 22.1646 9.81983 22.1249 9.72399C22.0853 9.62815 22.0272 9.54106 21.9539 9.46769ZM15.869 10.0262V5.68413L20.2112 10.0262H15.869Z" fill="#E3E7F3"/>
</svg>
