<svg width="61" height="61" viewBox="0 0 61 61" fill="none" xmlns="http://www.w3.org/2000/svg">
<rect width="61" height="61" rx="17" fill="#E8EDFE"/>
<path d="M30.5 19C29.9917 19 29.5042 19.2019 29.1447 19.5614C28.7853 19.9208 28.5833 20.4083 28.5833 20.9167V28.5833H20.9167C20.4083 28.5833 19.9208 28.7853 19.5614 29.1447C19.2019 29.5042 19 29.9917 19 30.5C19 31.0083 19.2019 31.4958 19.5614 31.8553C19.9208 32.2147 20.4083 32.4167 20.9167 32.4167H28.5833V40.0833C28.5833 40.5917 28.7853 41.0792 29.1447 41.4386C29.5042 41.7981 29.9917 42 30.5 42C31.0083 42 31.4958 41.7981 31.8553 41.4386C32.2147 41.0792 32.4167 40.5917 32.4167 40.0833V32.4167H40.0833C40.5917 32.4167 41.0792 32.2147 41.4386 31.8553C41.7981 31.4958 42 31.0083 42 30.5C42 29.9917 41.7981 29.5042 41.4386 29.1447C41.0792 28.7853 40.5917 28.5833 40.0833 28.5833H32.4167V20.9167C32.4167 20.4083 32.2147 19.9208 31.8553 19.5614C31.4958 19.2019 31.0083 19 30.5 19Z" fill="url(#paint0_linear_204_63)"/>
<defs>
<linearGradient id="paint0_linear_204_63" x1="14.4648" y1="15.4366" x2="43.1338" y2="43.4577" gradientUnits="userSpaceOnUse">
<stop stop-color="#00CAC3"/>
<stop offset="1" stop-color="#AF42F6"/>
</linearGradient>
</defs>
</svg>
