<svg width="23" height="23" viewBox="0 0 23 23" fill="none" xmlns="http://www.w3.org/2000/svg">
<path d="M11.5 0C10.9917 0 10.5042 0.201934 10.1447 0.561379C9.78527 0.920823 9.58333 1.40834 9.58333 1.91667V9.58333H1.91667C1.40834 9.58333 0.920823 9.78527 0.561379 10.1447C0.201934 10.5042 0 10.9917 0 11.5C0 12.0083 0.201934 12.4958 0.561379 12.8553C0.920823 13.2147 1.40834 13.4167 1.91667 13.4167H9.58333V21.0833C9.58333 21.5917 9.78527 22.0792 10.1447 22.4386C10.5042 22.7981 10.9917 23 11.5 23C12.0083 23 12.4958 22.7981 12.8553 22.4386C13.2147 22.0792 13.4167 21.5917 13.4167 21.0833V13.4167H21.0833C21.5917 13.4167 22.0792 13.2147 22.4386 12.8553C22.7981 12.4958 23 12.0083 23 11.5C23 10.9917 22.7981 10.5042 22.4386 10.1447C22.0792 9.78527 21.5917 9.58333 21.0833 9.58333H13.4167V1.91667C13.4167 1.40834 13.2147 0.920823 12.8553 0.561379C12.4958 0.201934 12.0083 0 11.5 0Z" fill="url(#paint0_linear_205_286)"/>
<defs>
<linearGradient id="paint0_linear_205_286" x1="-4.53521" y1="-3.56338" x2="24.1338" y2="24.4577" gradientUnits="userSpaceOnUse">
<stop stop-color="#00CAC3"/>
<stop offset="1" stop-color="#AF42F6"/>
</linearGradient>
</defs>
</svg>
