<svg width="29" height="29" viewBox="0 0 29 29" fill="none" xmlns="http://www.w3.org/2000/svg">
<path d="M12.0833 3.625H4.83333C4.16599 3.625 3.625 4.16599 3.625 4.83333V24.1667C3.625 24.834 4.16599 25.375 4.83333 25.375H12.0833C12.7507 25.375 13.2917 24.834 13.2917 24.1667V4.83333C13.2917 4.16599 12.7507 3.625 12.0833 3.625Z" stroke="#252525" stroke-width="2.41667" stroke-linecap="round" stroke-linejoin="round"/>
<path d="M8.4585 3.625V25.375" stroke="#252525" stroke-width="2.41667" stroke-linecap="round" stroke-linejoin="round"/>
<path d="M24.6501 22.8375C24.8918 23.4417 24.5293 24.1667 23.9251 24.4083L21.6293 25.2542C21.0251 25.4958 20.3001 25.1333 20.0584 24.5292L13.4126 6.1625C13.1709 5.55833 13.5334 4.83333 14.1376 4.59167L16.4334 3.74583C17.0376 3.50417 17.7626 3.86667 18.0043 4.47083L24.6501 22.8375Z" stroke="#252525" stroke-width="2.41667" stroke-linecap="round" stroke-linejoin="round"/>
</svg>
