<svg width="145" height="50" viewBox="0 0 145 50" fill="none" xmlns="http://www.w3.org/2000/svg">
<rect x="2.32687" y="2.32687" width="42.5485" height="42.5485" rx="9.63989" stroke="url(#paint0_linear_197_60)" stroke-width="4.65374"/>
<path d="M56.2808 20.6648V3.20465H63.4145C67.58 3.20465 70.0992 5.67402 70.0992 9.24088V9.29077C70.0992 13.3316 66.9564 15.4268 63.0403 15.4268H60.122V20.6648H56.2808ZM60.122 12.0096H63.1651C65.0857 12.0096 66.2081 10.8622 66.2081 9.3656V9.31571C66.2081 7.59464 65.0109 6.67174 63.0902 6.67174H60.122V12.0096ZM71.5452 20.6648V7.29532H75.3365V9.98918C76.1098 8.14339 77.3569 6.94612 79.6018 7.04589V11.0118H79.4022C76.883 11.0118 75.3365 12.5334 75.3365 15.7261V20.6648H71.5452ZM87.1675 20.9641C83.027 20.9641 79.959 17.8961 79.959 14.0549V14.005C79.959 10.1638 83.0519 7.04589 87.2174 7.04589C91.358 7.04589 94.426 10.1139 94.426 13.9551V14.005C94.426 17.8463 91.333 20.9641 87.1675 20.9641ZM87.2174 17.6966C89.3875 17.6966 90.6845 16.0254 90.6845 14.0549V14.005C90.6845 12.0345 89.2628 10.3134 87.1675 10.3134C84.9975 10.3134 83.7005 11.9846 83.7005 13.9551V14.005C83.7005 15.9755 85.1222 17.6966 87.2174 17.6966ZM96.1736 20.6648V7.29532H99.9649V9.191C100.838 8.06856 101.985 7.04589 103.906 7.04589C105.652 7.04589 106.974 7.81912 107.672 9.16605C108.845 7.79418 110.241 7.04589 112.062 7.04589C114.881 7.04589 116.577 8.74202 116.577 11.9597V20.6648H112.786V13.2068C112.786 11.4109 111.987 10.488 110.566 10.488C109.144 10.488 108.271 11.4109 108.271 13.2068V20.6648H104.48V13.2068C104.48 11.4109 103.681 10.488 102.26 10.488C100.838 10.488 99.9649 11.4109 99.9649 13.2068V20.6648H96.1736ZM118.877 24.6557V7.29532H122.668V9.21594C123.591 7.96878 124.863 7.04589 126.834 7.04589C129.951 7.04589 132.92 9.49031 132.92 13.9551V14.005C132.92 18.4698 130.001 20.9143 126.834 20.9143C124.813 20.9143 123.566 19.9914 122.668 18.9188V24.6557H118.877ZM125.861 17.6966C127.632 17.6966 129.128 16.2499 129.128 14.005V13.9551C129.128 11.7352 127.632 10.2635 125.861 10.2635C124.09 10.2635 122.618 11.7352 122.618 13.9551V14.005C122.618 16.225 124.09 17.6966 125.861 17.6966ZM139.225 20.8893C136.906 20.8893 135.334 19.9664 135.334 16.8735V10.5379H133.738V7.29532H135.334V3.87811H139.126V7.29532H142.268V10.5379H139.126V16.2499C139.126 17.1229 139.5 17.5469 140.348 17.5469C141.046 17.5469 141.67 17.3723 142.219 17.073V20.1161C141.42 20.59 140.497 20.8893 139.225 20.8893ZM74.3146 42.4698L71.8702 45.1886L69.9496 43.4676C68.4779 44.4154 66.707 44.9641 64.7614 44.9641C59.3737 44.9641 55.5075 40.9483 55.5075 35.9846V35.9347C55.5075 30.9711 59.4236 26.9053 64.8113 26.9053C70.199 26.9053 74.0652 30.9212 74.0652 35.8849V35.9347C74.0652 37.7805 73.4915 39.5016 72.5187 40.9483L74.3146 42.4698ZM64.8113 41.4222C65.6594 41.4222 66.4326 41.2726 67.1061 40.9483L64.2626 38.5288L66.707 35.7851L69.5754 38.3792C69.8748 37.6808 70.0494 36.8576 70.0494 35.9846V35.9347C70.0494 32.9416 67.8544 30.4473 64.7614 30.4473C61.6685 30.4473 59.5234 32.8917 59.5234 35.8849V35.9347C59.5234 38.9279 61.7184 41.4222 64.8113 41.4222ZM84.6563 44.9641C79.518 44.9641 75.7017 40.9982 75.7017 35.9846V35.9347C75.7017 30.9711 79.4432 26.9053 84.8059 26.9053C88.0984 26.9053 90.0689 28.0028 91.6902 29.5992L89.2458 32.4178C87.8989 31.1955 86.527 30.4473 84.781 30.4473C81.8377 30.4473 79.7175 32.8917 79.7175 35.8849V35.9347C79.7175 38.9279 81.7878 41.4222 84.781 41.4222C86.7764 41.4222 87.9987 40.624 89.3705 39.3769L91.815 41.8463C90.019 43.7669 88.0236 44.9641 84.6563 44.9641ZM93.8922 44.6648V27.2047H98.0328L102.622 34.5878L107.212 27.2047H111.352V44.6648H107.536V33.2658L102.622 40.7238H102.523L97.6587 33.3407V44.6648H93.8922Z" fill="#252525"/>
<path d="M34.5706 15.9557L19.9446 30.5817L13.2964 23.9335" stroke="#252525" stroke-width="4.65374" stroke-linecap="round" stroke-linejoin="round"/>
<path d="M34.5706 15.9557L19.9446 30.5817L13.2964 23.9335" stroke="url(#paint1_linear_197_60)" stroke-width="4.65374" stroke-linecap="round" stroke-linejoin="round"/>
<defs>
<linearGradient id="paint0_linear_197_60" x1="-9.30748" y1="-7.31302" x2="49.5291" y2="50.1939" gradientUnits="userSpaceOnUse">
<stop stop-color="#00CAC3"/>
<stop offset="1" stop-color="#AF42F6"/>
</linearGradient>
<linearGradient id="paint1_linear_197_60" x1="9.10147" y1="13.6897" x2="26.264" y2="38.0892" gradientUnits="userSpaceOnUse">
<stop stop-color="#00CAC3"/>
<stop offset="1" stop-color="#AF42F6"/>
</linearGradient>
</defs>
</svg>
