<svg width="29" height="29" viewBox="0 0 29 29" fill="none" xmlns="http://www.w3.org/2000/svg">
<path d="M14.5 9.66667L21.75 6.04167L14.5 2.41667V14.5" stroke="#252525" stroke-width="2.41667" stroke-linecap="round" stroke-linejoin="round"/>
<path d="M9.6666 14.4879L3.02077 18.2821C2.83481 18.3875 2.68013 18.5403 2.57252 18.725C2.4649 18.9097 2.4082 19.1196 2.4082 19.3333C2.4082 19.5471 2.4649 19.757 2.57252 19.9417C2.68013 20.1264 2.83481 20.2792 3.02077 20.3846L13.2916 26.2571C13.659 26.4692 14.0757 26.5809 14.4999 26.5809C14.9241 26.5809 15.3409 26.4692 15.7083 26.2571L25.9791 20.3846C26.1651 20.2792 26.3197 20.1264 26.4273 19.9417C26.535 19.757 26.5917 19.5471 26.5917 19.3333C26.5917 19.1196 26.535 18.9097 26.4273 18.725C26.3197 18.5403 26.1651 18.3875 25.9791 18.2821L19.3333 14.5" stroke="#252525" stroke-width="2.41667" stroke-linecap="round" stroke-linejoin="round"/>
<path d="M7.84229 15.5271L21.1581 23.1396" stroke="#252525" stroke-width="2.41667" stroke-linecap="round" stroke-linejoin="round"/>
<path d="M21.1578 15.5271L7.854 23.1396" stroke="#252525" stroke-width="2.41667" stroke-linecap="round" stroke-linejoin="round"/>
</svg>
