<svg width="13" height="13" viewBox="0 0 13 13" fill="none" xmlns="http://www.w3.org/2000/svg">
<path d="M5.55762 1.10449C6.72933 1.0784 7.86629 1.50526 8.73145 2.2959L8.88965 2.44727C9.66078 3.22319 10.1288 4.25331 10.2031 5.34961L10.2129 5.56836C10.2338 6.63463 9.87782 7.67521 9.20801 8.50879L11.6846 10.9863L11.7461 11.0605C11.7642 11.0875 11.7795 11.1163 11.792 11.1465C11.8169 11.2065 11.8301 11.2709 11.8301 11.3359C11.8301 11.4009 11.8169 11.4653 11.792 11.5254C11.7795 11.5555 11.7642 11.5843 11.7461 11.6113L11.6846 11.6855C11.6387 11.7315 11.5844 11.7681 11.5244 11.793C11.4644 11.8178 11.3999 11.831 11.335 11.8311C11.2699 11.8311 11.2056 11.8178 11.1455 11.793C11.1155 11.7805 11.0864 11.766 11.0596 11.748L10.9844 11.6855L8.50684 9.20801C7.67273 9.87696 6.63253 10.2327 5.56641 10.2109L5.34766 10.2012C4.25138 10.1259 3.22154 9.65663 2.44629 8.88477L2.29492 8.72656C1.50506 7.86072 1.07932 6.72344 1.10645 5.55176L1.11719 5.33301C1.19507 4.24192 1.66315 3.21214 2.44043 2.43555L2.59961 2.28418C3.40959 1.54942 4.45942 1.12903 5.55762 1.10449ZM6.36035 2.18262C5.75731 2.06266 5.13481 2.1013 4.55371 2.29297L4.30664 2.38477C3.73863 2.6201 3.24285 2.99825 2.86621 3.48047L2.71191 3.69336C2.32143 4.27776 2.11328 4.96511 2.11328 5.66797L2.11816 5.84375C2.16257 6.72189 2.5306 7.55502 3.15527 8.17969L3.2832 8.30078C3.93486 8.89093 4.78367 9.2207 5.66699 9.22168L5.92969 9.21191C6.54001 9.16666 7.13028 8.9647 7.6416 8.62305L7.85449 8.46875C8.33669 8.09212 8.71486 7.59632 8.9502 7.02832L9.04199 6.78125C9.20626 6.28324 9.25832 5.75486 9.19434 5.23438L9.15234 4.97461C9.03234 4.37139 8.75806 3.81124 8.3584 3.34766L8.17969 3.15527C7.74487 2.72046 7.20593 2.40662 6.61621 2.24316L6.36035 2.18262Z" fill="#545454" stroke="#545454" stroke-width="0.179936"/>
</svg>
