<svg width="14" height="14" viewBox="0 0 14 14" fill="none" xmlns="http://www.w3.org/2000/svg">
<path d="M6.05786 1.60464C7.22957 1.57855 8.36653 2.00541 9.23169 2.79605L9.38989 2.94742C10.161 3.72334 10.629 4.75346 10.7033 5.84976L10.7131 6.06851C10.734 7.13478 10.3781 8.17536 9.70825 9.00894L12.1848 11.4865L12.2463 11.5607C12.2644 11.5877 12.2797 11.6165 12.2922 11.6467C12.3171 11.7067 12.3303 11.7711 12.3303 11.8361C12.3303 11.9011 12.3171 11.9655 12.2922 12.0256C12.2797 12.0557 12.2644 12.0845 12.2463 12.1115L12.1848 12.1857C12.1389 12.2317 12.0846 12.2683 12.0246 12.2932C11.9646 12.318 11.9001 12.3312 11.8352 12.3313C11.7701 12.3313 11.7058 12.318 11.6457 12.2932C11.6157 12.2807 11.5866 12.2662 11.5598 12.2482L11.4846 12.1857L9.00708 9.70816C8.17297 10.3771 7.13277 10.7329 6.06665 10.7111L5.8479 10.7014C4.75162 10.6261 3.72178 10.1568 2.94653 9.38493L2.79516 9.22671C2.0053 8.36087 1.57956 7.2236 1.60669 6.05192L1.61743 5.83317C1.69531 4.74208 2.16339 3.71229 2.94067 2.9357L3.09985 2.78433C3.90983 2.04957 4.95966 1.62918 6.05786 1.60464ZM6.86059 2.68277C6.25755 2.56281 5.63505 2.60145 5.05395 2.79312L4.80688 2.88492C4.23887 3.12025 3.74309 3.4984 3.36645 3.98062L3.21215 4.19351C2.82167 4.77791 2.61352 5.46527 2.61352 6.16813L2.6184 6.3439C2.66281 7.22204 3.03084 8.05518 3.65551 8.67985L3.78344 8.80094C4.4351 9.39109 5.28391 9.72085 6.16723 9.72183L6.42993 9.71206C7.04025 9.66681 7.63052 9.46485 8.14184 9.1232L8.35473 8.9689C8.83693 8.59227 9.2151 8.09647 9.45044 7.52847L9.54223 7.2814C9.7065 6.78339 9.75856 6.25501 9.69458 5.73453L9.65258 5.47476C9.53258 4.87154 9.2583 4.31139 8.85864 3.84781L8.67993 3.65542C8.24511 3.22061 7.70617 2.90677 7.11645 2.74331L6.86059 2.68277Z" fill="#E3E7F3" stroke="#E3E7F3" stroke-width="0.179936"/>
</svg>
