<svg width="29" height="29" viewBox="0 0 29 29" fill="none" xmlns="http://www.w3.org/2000/svg">
<path d="M14.7656 2.41666H14.2339C13.593 2.41666 12.9783 2.67127 12.5251 3.12448C12.0719 3.57769 11.8173 4.19238 11.8173 4.83332V5.05082C11.8168 5.47462 11.705 5.89084 11.4929 6.25775C11.2808 6.62466 10.9759 6.92934 10.6089 7.14124L10.0893 7.44332C9.72196 7.65543 9.30522 7.7671 8.88101 7.7671C8.45679 7.7671 8.04005 7.65543 7.67267 7.44332L7.49142 7.34666C6.93688 7.02677 6.27806 6.93998 5.65959 7.10536C5.04113 7.27074 4.51355 7.67476 4.19267 8.22874L3.92684 8.68791C3.60695 9.24245 3.52017 9.90127 3.68555 10.5197C3.85092 11.1382 4.25495 11.6658 4.80892 11.9867L4.99017 12.1075C5.35542 12.3184 5.65913 12.6211 5.87111 12.9857C6.08309 13.3503 6.19596 13.7641 6.19851 14.1858V14.8021C6.2002 15.2279 6.08934 15.6466 5.87714 16.0159C5.66495 16.3851 5.35897 16.6917 4.99017 16.9046L4.80892 17.0133C4.25495 17.3342 3.85092 17.8618 3.68555 18.4802C3.52017 19.0987 3.60695 19.7575 3.92684 20.3121L4.19267 20.7712C4.51355 21.3252 5.04113 21.7292 5.65959 21.8946C6.27806 22.06 6.93688 21.9732 7.49142 21.6533L7.67267 21.5567C8.04005 21.3445 8.45679 21.2329 8.88101 21.2329C9.30522 21.2329 9.72196 21.3445 10.0893 21.5567L10.6089 21.8587C10.9759 22.0706 11.2808 22.3753 11.4929 22.7422C11.705 23.1091 11.8168 23.5254 11.8173 23.9492V24.1667C11.8173 24.8076 12.0719 25.4223 12.5251 25.8755C12.9783 26.3287 13.593 26.5833 14.2339 26.5833H14.7656C15.4065 26.5833 16.0212 26.3287 16.4744 25.8755C16.9276 25.4223 17.1823 24.8076 17.1823 24.1667V23.9492C17.1827 23.5254 17.2946 23.1091 17.5066 22.7422C17.7187 22.3753 18.0236 22.0706 18.3906 21.8587L18.9102 21.5567C19.2776 21.3445 19.6943 21.2329 20.1185 21.2329C20.5427 21.2329 20.9595 21.3445 21.3268 21.5567L21.5081 21.6533C22.0626 21.9732 22.7215 22.06 23.3399 21.8946C23.9584 21.7292 24.486 21.3252 24.8068 20.7712L25.0727 20.3C25.3926 19.7454 25.4793 19.0866 25.314 18.4682C25.1486 17.8497 24.7446 17.3221 24.1906 17.0012L24.0093 16.9046C23.6405 16.6917 23.3346 16.3851 23.1224 16.0159C22.9102 15.6466 22.7993 15.2279 22.801 14.8021V14.1979C22.7993 13.7721 22.9102 13.3533 23.1224 12.9841C23.3346 12.6149 23.6405 12.3083 24.0093 12.0954L24.1906 11.9867C24.7446 11.6658 25.1486 11.1382 25.314 10.5197C25.4793 9.90127 25.3926 9.24245 25.0727 8.68791L24.8068 8.22874C24.486 7.67476 23.9584 7.27074 23.3399 7.10536C22.7215 6.93998 22.0626 7.02677 21.5081 7.34666L21.3268 7.44332C20.9595 7.65543 20.5427 7.7671 20.1185 7.7671C19.6943 7.7671 19.2776 7.65543 18.9102 7.44332L18.3906 7.14124C18.0236 6.92934 17.7187 6.62466 17.5066 6.25775C17.2946 5.89084 17.1827 5.47462 17.1823 5.05082V4.83332C17.1823 4.19238 16.9276 3.57769 16.4744 3.12448C16.0212 2.67127 15.4065 2.41666 14.7656 2.41666Z" stroke="#E3E7F3" stroke-width="2.41667" stroke-linecap="round" stroke-linejoin="round"/>
<path d="M14.5 18.125C16.502 18.125 18.125 16.502 18.125 14.5C18.125 12.498 16.502 10.875 14.5 10.875C12.498 10.875 10.875 12.498 10.875 14.5C10.875 16.502 12.498 18.125 14.5 18.125Z" stroke="#E3E7F3" stroke-width="2.41667" stroke-linecap="round" stroke-linejoin="round"/>
</svg>
